Patient4_TMGait_0pt5_01_right_25_EMG.mot
version=1
nRows=37
nColumns=33
inDegrees=no
endheader
time	1LAddLong	2LGlutMax	3LGlutMed	4LIliopsoas	5LSemiMemb	6LBicFemLong	7LRecFem	8LVastMed	9LVastLat	10LGasMed	11LTibAnt	12lTibPost	13LPeroneusLong	14LSol	15LExtDigLong	16LFlexDigLong	17RAddLong	18RGlutMax	19RGlutMed	20RIliopsoas	21RSemiMemb	22RBicFemLong	23RRecFem	24RVastMed	25RVastLat	26RGasMed	27RTibAnt	28RTibPost	29RPeroneusLong	30RSol	31RExtDigLong	32RFlexDigLong
33.725	0.007782	-0.083466	-0.050964	0.018158	0.038452	-0.2507	0.10208	0.00473	0.11231	0.035706	0.06485	0.023041	-0.098419	0.20111	0.074768	0.065613	0.070496	-0.079803	-0.17868	0.016785	-0.095978	0.32318	-0.33295	-0.30197	-0.037384	0	-0.85663	0.000153	0.069733	-0.1062	0.001984	-0.020447
33.726	-0.001221	-0.028534	-0.084229	0.012817	0.054779	-0.037231	0.061493	-0.005341	0.13748	0.026855	-0.006714	-0.000763	-0.095673	0.21515	0.067596	0.052032	0.014038	-0.065002	0.080872	0.018616	-0.43518	0.53131	-0.32425	-0.092926	0.053711	-0.010376	-1.0222	-0.003357	-0.001526	-0.053406	-0.00061	-0.020447
33.727	-0.000763	-0.039368	-0.11688	0	-0.001068	0.049896	0.04837	0.001068	0.10727	0.014648	-0.084076	0.021057	-0.055084	0.24918	0.016632	-0.003052	-0.040131	-0.001068	-0.062256	-0.004578	-0.093994	0.55206	-0.33295	0.090637	0.1181	-0.008698	-0.55771	-0.005646	0.066223	-0.005341	0	-0.018311
33.728	0.010986	-0.041046	-0.099335	0.005188	-0.061493	-0.031738	0.024872	0.016174	0.031433	0.010376	-0.080566	0.010986	-0.064545	0.27557	-0.097351	-0.024719	-0.05188	-0.064087	0.16373	-0.011597	0.015564	0.34744	-0.30456	0.087738	0.094299	0.003052	-0.23422	-0.019073	0.16571	0.019531	-0.001221	-0.00885
33.729	0.006714	0.028534	0.063019	0.013733	-0.010071	-0.085144	0.053253	0.027313	-0.01236	0.010376	0.002289	0.013428	-0.06134	0.24689	-0.16388	-0.056305	-0.049744	-0.12985	0.13641	-0.031738	0.009766	-0.065002	-0.33386	0.009155	0.083618	0.001068	0.005035	-0.015564	0.14404	-0.03891	-0.002899	-0.013733
33.73	0.024719	0.040131	0.07431	0.025482	0.068359	-0.059967	0.028381	0.027313	-0.009155	-0.047455	0.039825	0.005188	0.050507	0.27115	-0.16098	-0.074615	-0.018463	-0.11993	0.10895	-0.10696	0.078735	-0.37048	-0.47546	-0.0354	0.10605	0.003204	0.26916	-0.010529	-0.066681	-0.11658	-0.003052	-0.008087
33.731	0.027618	0.1294	0.00885	-0.00061	0.065918	-0.093842	0.023499	0.01297	-0.016937	-0.10681	0.11429	0.009918	0.12054	0.29037	0.37018	-0.055084	-0.016937	-0.071564	0.19562	-0.11566	0.097198	-0.48157	-0.37598	0.001984	0.11231	0.014038	0.30701	0.014496	-0.47653	0.018005	-0.002289	-0.005035
33.732	0.028839	0.15778	0.011444	0.009155	0.010681	-0.021362	0.053101	0.017242	-0.060883	-0.05661	0.14282	0.00473	0.007324	0.29236	0.31387	-0.066681	0.000305	-0.11322	0.13229	-0.10422	0.095825	-0.40741	-0.30762	-0.016937	0.072937	0.00885	0.19516	0.026245	-0.31372	-0.034332	-0.003815	0.007172
33.733	0.025635	0.16083	0.072021	0.00412	-0.034027	-0.010223	0.055237	-0.00061	-0.079651	-0.053864	0.25543	0.001373	-0.055389	0.29694	0.36301	-0.077057	0.013123	-0.13443	0.06485	-0.036774	0.14954	-0.29175	-0.28458	-0.13046	0.04425	0.003967	0.10117	0.031433	-0.10941	-0.010529	0.002136	-0.000458
33.734	0.035095	0.15778	0.072937	0.026703	-0.038147	0.094604	0.031738	-0.006409	-0.020142	-0.079956	0.1384	0.000916	-0.02533	0.24414	0.035553	-0.07309	0.021515	-0.14526	0.10819	0.076447	0.20813	-0.073242	-0.25482	-0.12299	0.020752	-0.008392	0.071106	0.003357	0.018768	0.086823	0.000458	-0.001068
33.735	0.042114	0.14374	0.015564	0.010529	-0.007935	0.15335	0.013123	0.008087	0.16296	-0.089264	-0.092773	-0.005035	0.0383	0.21835	-0.29266	-0.085754	0.036316	-0.16403	0.13245	0.079651	0.2594	0.005798	-0.22339	-0.098877	0.007935	-0.010681	0.097504	-0.002747	0.11444	0.076141	-0.002289	-0.00061
33.736	0.016937	0.12802	-0.026245	0.003967	0.016327	0.15976	0.005493	0.003204	0.20554	-0.10468	-0.10284	-0.009003	0.006561	0.18814	-0.42587	-0.08316	-0.000916	-0.17425	0.14542	0.083313	0.19394	-0.057068	-0.25772	-0.1152	0.016174	-0.007782	0.23071	-0.005035	0.10315	0.079346	-0.000305	-0.010681
33.737	-0.011444	0.14984	-0.008392	0.020294	-0.02594	-0.011902	-0.036774	0.026855	0.26321	-0.084534	-0.033722	-0.011292	-0.032806	0.1033	-0.24628	-0.10986	-0.040131	-0.21179	0.18707	0.14236	0.13001	0.29205	-0.2594	-0.082855	0.031128	0.010376	0.33402	-0.005035	0.10284	0.069885	-0.001831	-0.015717
33.738	-0.037842	0.18448	0.059814	0.012512	-0.058594	-0.19257	-0.088348	0.021667	0.37979	-0.085297	-0.091248	-0.01358	-0.039063	0.003815	-0.10696	-0.083771	-0.022583	-0.11124	0.20172	0.17044	0.10834	0.42694	-0.23315	-0.097504	0.012665	0.006104	0.3627	-0.008698	0.29083	0.071716	-0.00061	-0.011292
33.739	-0.035248	0.21957	0.14694	0.003052	-0.10651	-0.2388	-0.10696	0.028534	0.54718	-0.082855	-0.062256	-0.019073	-0.028076	-0.009308	-0.24735	-0.050659	-0.011139	-0.09964	0.2449	0.11871	0.054321	0.23972	-0.23056	-0.016632	0.014801	-0.000458	0.30731	-0.002747	0.47134	0.092773	-0.001831	-0.013733
33.74	-0.037384	0.26672	0.099945	0.009613	-0.13199	-0.18433	-0.12207	0.034332	0.40253	-0.079803	-0.09079	-0.02182	-0.02594	0.081024	-0.073242	-0.057373	0	-0.13397	0.31113	0.051117	-0.024414	-0.12421	-0.23148	-0.031586	0.021973	0.007629	-0.1149	0.000153	0.43243	0.047455	-0.001678	-0.010529
33.741	-0.026093	0.31952	0.038605	0.021057	-0.009155	-0.18402	-0.12116	0.029297	0.15045	-0.068512	-0.071106	-0.024872	-0.065308	0.10132	-0.060425	-0.058746	0.014191	-0.16541	0.31647	-0.012207	0.013428	-0.45487	-0.24597	-0.085144	0.00351	0.019073	-0.41763	-0.002136	-0.000916	0.042267	0.000153	-0.011597
33.742	-0.012665	0.45166	0.045471	0.011749	0.032654	-0.11276	-0.053253	0.024567	0.091095	-0.05188	-0.023346	-0.013733	-0.11429	0.10437	0.019379	-0.065002	0.017242	-0.16525	0.30167	-0.02121	-0.068207	-0.39322	-0.23407	-0.14358	-0.009155	0.028839	-0.19516	-0.000458	0.383	0.074921	-0.00473	-0.014801
33.743	-0.022888	0.59113	0.04425	0.016022	-0.025635	0.037231	0.035706	0.023499	-0.061035	-0.061188	-0.016479	-0.025482	-0.1268	0.09201	0.088348	-0.085144	0.018616	-0.16663	0.32425	-0.005798	-0.20752	-0.20569	-0.18555	-0.16174	-0.043182	0.029449	0.02655	-0.002594	0.53238	0.067291	-0.001831	-0.019226
33.744	-0.023346	0.71274	0.10284	0.020142	-0.085907	0.097046	0.016327	0.003967	-0.25085	-0.049744	-0.004425	-0.03006	-0.0914	0.044861	0.10315	-0.087585	0.031891	-0.18387	0.30746	0.047455	-0.40146	-0.00824	-0.17746	-0.16144	-0.029907	0.018158	0.023346	0.002441	-0.45364	0.035095	-0.002899	-0.016937
33.745	0.009613	0.8577	0.10742	0.018616	-0.045166	0.086975	-0.051727	0.005798	-0.25131	-0.013733	0.003662	-0.029755	-0.0383	0.00061	0.078278	-0.080109	-0.005035	-0.17456	0.3038	0.046692	-0.11231	-0.04425	-0.14923	-0.14145	-0.037994	-0.022278	-0.08194	0.009003	-0.34241	-0.072327	0.005188	-0.009766
33.746	0.035248	0.8577	0.12466	0.005341	0.060577	0.042419	-0.070038	-0.016022	-0.2121	-0.044556	0.005035	-0.033264	-0.02243	-0.030518	0.074921	-0.078735	-0.021515	-0.24658	0.32105	-0.017853	0.14282	-0.14832	-0.1857	-0.1535	-0.030365	-0.049133	-0.099335	0.012512	-0.33402	-0.28061	-0.003052	-0.010529
33.747	0.037231	0.94788	0.089569	0.022888	0.079193	-0.005035	-0.061798	-0.014954	-0.16419	-0.006409	0.004272	-0.036011	-0.022736	-0.073242	0.07309	-0.12299	0.002136	-0.28107	0.37079	-0.072021	0.018463	-0.13428	-0.18402	-0.1358	-0.041351	-0.089874	-0.05661	-0.015564	-0.29343	-0.52017	-0.000916	-0.001068
33.748	0.02182	1.118	-0.028992	0.002594	0.031738	0.062408	-0.092163	0.00412	-0.10712	-0.019226	0.007172	-0.032501	-0.023651	-0.084381	0.064697	-0.15015	0.020599	-0.32837	0.34256	-0.075378	0.011292	-0.17624	-0.16953	-0.15915	-0.038605	-0.084686	0.000458	-0.10727	-0.16769	-0.36819	-0.004883	-0.005341
33.749	0.008698	1.1865	-0.026855	-0.00061	-0.022125	0.061493	-0.1796	-0.001678	-0.06485	-0.01358	0.007019	-0.032806	-0.02243	-0.074005	0.073853	-0.080719	0.021973	-0.38147	0.38193	-0.078125	0.09491	-0.21347	-0.16388	-0.21378	-0.034637	-0.027466	0.044861	-0.001068	-0.32791	0.11963	-0.004272	-0.005646
33.75	0.003815	1.2463	0.25146	0.00946	-0.016937	0.041046	-0.11749	0.003204	-0.27451	-0.000458	0.005493	-0.037384	0.019989	-0.08728	0.089722	-0.11368	0.02594	-0.31647	0.44266	-0.11276	0.085907	-0.17654	-0.16083	-0.14923	-0.014801	0.032654	0.028687	0.051422	-0.29282	0.2066	-0.008087	-0.001221
33.751	0.014954	1.2598	0.47928	0.003967	0.024719	0.075989	-0.036621	0.014191	-0.50217	0.042877	-0.006866	-0.044556	0.046539	-0.11154	0.063934	-0.10513	0.037079	-0.32303	0.513	-0.13367	0.06012	-0.11475	-0.16083	-0.13001	-0.004578	0.028839	-0.001068	0.014038	-0.16495	0.16144	-0.003204	-0.000916
33.752	-0.014801	1.2003	0.39414	-0.003204	0.023499	0.10361	0.066833	0.016022	-0.63431	0.046082	-0.009308	-0.03418	0.020752	-0.09613	0.034332	-0.11688	0.025787	-0.35904	0.47623	-0.007477	0.014954	-0.048065	-0.10635	-0.14877	-0.010681	0.00061	0.014496	-0.014801	-0.17242	0.11673	0	0.003357
33.753	-0.008545	1.2029	0.37231	-0.005188	-0.097656	-0.10208	0.029602	0.028839	-0.54901	0.053864	-0.005035	-0.029755	0.013275	-0.082855	0.00885	-0.11414	-0.030212	-0.37689	0.45487	0.18799	-0.004272	-0.000153	-0.10056	-0.16373	0.003662	-0.013885	0.001831	-0.32227	0.082092	-0.066528	-0.005341	0.002136
33.754	0.005035	1.1253	0.2803	0.015411	-0.056763	-0.17822	-0.075684	0.014801	-0.23056	0.04837	0.000153	-0.030823	0.007935	-0.088959	0.008087	-0.11032	-0.058594	-0.37735	0.40375	0.31387	-0.030518	-0.035858	-0.05722	-0.13687	-0.011444	0.007629	-0.00412	0.020599	0.095367	-0.66589	-0.003204	-0.003052
33.755	0.013885	0.92194	0.19608	0.020599	0.029449	-0.17151	-0.081024	0.010529	-0.034943	0.050354	-0.000305	-0.027618	0.01709	-0.11383	0.027618	-0.091858	-0.045624	-0.35217	0.30899	0.25192	-0.019531	-0.040894	-0.052032	-0.16495	-0.034027	0.01236	-0.017395	0.19012	0.21668	-0.45517	0.001221	-0.007172
33.756	0.015717	0.75287	0.097961	0.005493	0.057831	-0.16007	-0.00824	0.024109	0.090027	0.060272	-0.002441	-0.025177	0.048523	-0.10895	0.041199	-0.10376	-0.043182	-0.32242	0.47501	0.10803	-0.00412	0.053253	-0.063934	-0.11322	-0.00946	0.001831	-0.01297	0.073242	0.18372	0.64636	-0.001984	-0.001831
33.757	0.005951	0.58014	0.030823	0.001221	0.013733	-0.1004	0.066071	0.022278	0.15381	0.081329	-0.004425	-0.018768	0.077057	-0.12314	0.008392	-0.11597	-0.01297	-0.33005	0.54962	0.02594	0.019073	0.19486	-0.13672	-0.085449	-0.001221	-0.011444	0.000305	0.063782	-0.04715	1.015	-0.004272	-0.014343
33.758	0.012207	0.43427	0.038147	-0.005341	-0.016327	-0.022125	0.14374	0.02533	0.000763	0.11124	-0.003204	-0.01236	0.094604	-0.11856	-0.023346	-0.12314	0.013275	-0.30975	0.29098	0.00412	-0.001068	0.091858	-0.12894	-0.10544	0.009308	-0.013275	0.003052	0.033417	-0.14297	0.70038	-0.002594	-0.009003
33.759	0.013885	0.30975	-0.039825	-0.004883	-0.016479	0.099182	0.22598	0.024567	-0.23666	0.12497	-0.000916	-0.016327	0.055237	-0.10361	-0.029144	-0.11429	0.043335	-0.2803	0.23987	-0.029144	0.01236	0.016937	-0.089569	-0.032501	0.010071	-0.013123	0.034332	0.014038	-0.14343	0.51178	-0.001984	0.000305
33.76	0.029602	0.22858	-0.028992	-0.00885	0.075226	0.28061	0.29404	0.020599	-0.34256	0.12711	-0.004272	-0.012207	0.057678	-0.093384	-0.008698	-0.11612	0.075378	-0.28412	0.38589	-0.046997	-0.009003	0.031891	-0.10437	-0.036163	0.014038	-0.006256	0.055847	0.007782	-0.057678	0.20905	-0.001221	-0.005341
33.761	0.015259	0.10757	0.0383	0.002899	0.09079	0.36224	0.37338	0.018158	-0.2475	0.11856	-0.005341	-0.009918	0.06897	-0.1088	0.013733	-0.11093	0.074615	-0.32303	0.51926	-0.040283	-0.13275	0.095978	-0.089264	-0.003662	0.029602	0.001984	0.065613	0.006104	-0.034332	0.06958	-0.002136	-0.002136
